Coordinates
version=1
nRows=10
nColumns=40
inDegrees=yes

Units are S.I. units (second, meters, Newtons, ...)
Angles are in degrees.

endheader
time	pelvis_tilt	pelvis_list	pelvis_rotation	pelvis_tx	pelvis_ty	pelvis_tz	hip_flexion_r	hip_adduction_r	hip_rotation_r	knee_angle_r	knee_angle_r_beta	ankle_angle_r	subtalar_angle_r	mtp_angle_r	hip_flexion_l	hip_adduction_l	hip_rotation_l	knee_angle_l	knee_angle_l_beta	ankle_angle_l	subtalar_angle_l	mtp_angle_l	lumbar_extension	lumbar_bending	lumbar_rotation	arm_flex_r	arm_add_r	arm_rot_r	elbow_flex_r	pro_sup_r	wrist_flex_r	wrist_dev_r	arm_flex_l	arm_add_l	arm_rot_l	elbow_flex_l	pro_sup_l	wrist_flex_l	wrist_dev_l
     39.78000000	     -5.57562195	     -4.98110037	      9.30903573	      0.93788081	      0.91295845	      0.48637594	     -2.45804938	      3.95635815	    -17.35172950	     14.12392663	     14.12392663	     19.32118156	      0.16267147	     -2.58971604	     31.08179514	     -5.13566996	      4.74218745	     27.44604319	     27.44604319	      4.77978417	    -15.43741008	      5.26115309	     -8.23671257	      1.76270928	      5.60353921	     57.79753467	    -18.43874648	     -7.21394068	     74.56787647	     44.71470190	      0.00000000	      0.00000000	    -10.48163883	    -10.24492608	     10.97006100	     33.54475283	     44.06644547	      0.00000000	      0.00000000
     39.80000000	     -5.65495586	     -5.05984761	      8.88466062	      0.93910510	      0.91301440	      0.48215474	     -2.71057070	      3.56417132	    -17.50798483	     14.52023286	     14.52023286	     19.24656174	      1.07270678	     -2.95529250	     31.08823239	     -4.99559854	      4.88927508	     28.45693115	     28.45693115	      5.44210640	    -16.40512805	      5.71641270	     -8.27890363	      1.96057037	      6.24120108	     57.87284783	    -18.79949620	     -7.42437445	     73.28502603	     44.77512479	      0.00000000	      0.00000000	     -9.72611598	    -10.42203175	     10.75478438	     34.28704931	     44.12683160	      0.00000000	      0.00000000
     39.82000000	     -5.80802701	     -5.06440933	      8.40653272	      0.94046686	      0.91327150	      0.47799975	     -2.96899010	      3.15970379	    -17.23912174	     14.71778056	     14.71778056	     19.01331155	      1.45776791	     -3.00516496	     30.86654373	     -4.88435756	      4.69401493	     28.95434465	     28.95434465	      6.01586813	    -16.88474880	      5.69637869	     -8.28206153	      2.03069367	      6.37571896	     57.43698910	    -18.45996263	     -7.32136469	     72.83960411	     44.78648642	      0.00000000	      0.00000000	     -9.10062110	    -10.61149453	     10.67442173	     34.61315912	     44.15078627	      0.00000000	      0.00000000
     39.84000000	     -6.00737746	     -5.01057946	      7.94667188	      0.94161383	      0.91332101	      0.47349438	     -3.01626358	      2.46802720	    -17.80379349	     15.27197253	     15.27197253	     18.67378648	      2.90111947	     -4.32894244	     30.89333947	     -4.61783065	      4.61524666	     29.90453069	     29.90453069	      8.03278564	    -16.98151334	      9.15929672	     -8.16345358	      2.04219274	      5.86275778	     58.16574688	    -17.34185373	     -7.64895736	     68.72037815	     44.98001639	      0.00000000	      0.00000000	     -9.45386123	    -10.99526401	     10.29855155	     36.57053778	     44.30626626	      0.00000000	      0.00000000
     39.86000000	     -6.15805480	     -5.04657266	      7.42715636	      0.94289037	      0.91346118	      0.46912857	     -3.07437459	      1.99706395	    -17.58099301	     15.81517400	     15.81517400	     18.46523632	      3.27758394	     -4.61671353	     30.66688245	     -4.56888529	      4.27812917	     30.39573694	     30.39573694	      8.75011752	    -17.22216447	      9.27862572	     -8.14897492	      2.18192359	      6.22275179	     57.50645535	    -17.47509753	     -7.79125439	     67.49410605	     45.03283000	      0.00000000	      0.00000000	     -8.77976084	    -11.18756956	     10.08744122	     37.13448264	     44.36834256	      0.00000000	      0.00000000
     39.88000000	     -6.21796678	     -5.13323142	      6.94665418	      0.94425382	      0.91383185	      0.46470522	     -3.28441572	      1.63684389	    -17.26192254	     16.20428208	     16.20428208	     18.17833379	      3.52095879	     -4.67822697	     30.27478551	     -4.55398289	      4.02323146	     30.74237667	     30.74237667	      9.31032259	    -17.55525495	      9.15854866	     -8.26658379	      2.42948109	      6.17956696	     56.50301765	    -17.16310096	     -7.72103263	     66.89762651	     45.04715369	      0.00000000	      0.00000000	     -8.16942328	    -11.37372547	     10.01331270	     37.39808677	     44.38978171	      0.00000000	      0.00000000
     39.90000000	     -6.38988496	     -5.04069208	      6.42844888	      0.94538421	      0.91398766	      0.46008966	     -3.06699642	      0.86304221	    -17.32197027	     17.21284517	     17.21284517	     17.63377029	      4.07550081	     -6.31632683	     30.02684980	     -4.36189761	      3.56491181	     31.21455417	     31.21455417	     10.58400273	    -17.48886921	     10.64945073	     -8.12899701	      2.43270090	      5.91459906	     56.46405735	    -16.34547222	     -8.69078733	     62.36975673	     45.26017935	      0.00000000	      0.00000000	     -7.93900054	    -11.73408795	     10.01547421	     38.43042805	     44.48572385	      0.00000000	      0.00000000
     39.92000000	     -6.35807943	     -5.18817354	      6.00834328	      0.94670078	      0.91460390	      0.45555057	     -3.16148098	      0.52317584	    -16.99902457	     17.94039232	     17.94039232	     17.22864546	      4.14189132	     -6.43063771	     29.47199163	     -4.40383590	      3.30138595	     31.40353170	     31.40353170	     11.13139385	    -17.68590033	     10.49499705	     -8.33320544	      2.78734250	      5.72752103	     54.97294970	    -16.05441999	     -8.62319620	     61.67165085	     45.27522019	      0.00000000	      0.00000000	     -7.23719280	    -11.92368771	      9.93045854	     38.70077831	     44.50904037	      0.00000000	      0.00000000
     39.94000000	     -6.56641218	     -4.99108728	      5.45435259	      0.94766468	      0.91479177	      0.45092064	     -2.34526784	     -0.46279069	    -16.56092901	     19.96144958	     19.96144958	     16.87310200	      3.70161391	     -7.38157504	     29.07292242	     -4.17005092	      2.56293054	     31.49504346	     31.49504346	     11.76635877	    -17.53899728	     10.41983373	     -8.22725485	      2.64524218	      6.02447845	     53.37803112	    -16.46288792	     -8.97867158	     59.64715859	     45.35548490	      0.00000000	      0.00000000	     -6.32270953	    -12.16756968	      9.81531704	     39.16875406	     44.55093225	      0.00000000	      0.00000000
     39.96000000	     -6.63033478	     -4.97227824	      5.02542912	      0.94861674	      0.91524980	      0.44625124	     -1.66162170	     -1.18335120	    -16.10605644	     21.91284847	     21.91284847	     16.16276230	      3.05520492	     -8.51524960	     28.54654406	     -4.04558245	      2.10059598	     31.54641409	     31.54641409	     12.37382663	    -17.52393631	     10.38625369	     -8.27156739	      2.79151280	      5.94843555	     51.68086111	    -16.41242732	     -9.31109311	     57.57556525	     45.43557809	      0.00000000	      0.00000000	     -5.35926968	    -12.38290349	      9.83737473	     39.46554623	     44.57758196	      0.00000000	      0.00000000
